<svg width="169" height="51" viewBox="0 0 169 51" fill="none" xmlns="http://www.w3.org/2000/svg">
<path d="M0 1C0 0.447715 0.447715 0 1 0H9C9.55228 0 10 0.447715 10 1V50C10 50.5523 9.55228 51 9 51H1C0.447716 51 0 50.5523 0 50V1Z" fill="black"/>
<rect x="13" width="156" height="51" rx="1" fill="#DDDDDD"/>
<path d="M28.672 35.156C27.4933 35.156 26.4273 34.896 25.474 34.376C24.538 33.8387 23.7927 33.05 23.238 32.01C22.7007 30.97 22.432 29.67 22.432 28.11C22.432 26.55 22.7093 25.25 23.264 24.21C23.836 23.17 24.59 22.39 25.526 21.87C26.4793 21.35 27.528 21.09 28.672 21.09C30.024 21.09 31.22 21.3847 32.26 21.974C33.3 22.5633 34.1233 23.3867 34.73 24.444C35.3367 25.484 35.64 26.706 35.64 28.11C35.64 29.514 35.3367 30.7447 34.73 31.802C34.1233 32.8593 33.3 33.6827 32.26 34.272C31.22 34.8613 30.024 35.156 28.672 35.156ZM21.366 35V15.708H23.862V24.886L23.602 28.084L23.758 31.282V35H21.366ZM28.464 32.972C29.348 32.972 30.1367 32.7727 30.83 32.374C31.5407 31.9753 32.0953 31.412 32.494 30.684C32.91 29.9387 33.118 29.0807 33.118 28.11C33.118 27.122 32.91 26.2727 32.494 25.562C32.0953 24.834 31.5407 24.2707 30.83 23.872C30.1367 23.4733 29.348 23.274 28.464 23.274C27.5973 23.274 26.8087 23.4733 26.098 23.872C25.4047 24.2707 24.85 24.834 24.434 25.562C24.0353 26.2727 23.836 27.122 23.836 28.11C23.836 29.0807 24.0353 29.9387 24.434 30.684C24.85 31.412 25.4047 31.9753 26.098 32.374C26.8087 32.7727 27.5973 32.972 28.464 32.972ZM44.9907 35.156C43.604 35.156 42.3733 34.8527 41.2987 34.246C40.224 33.6393 39.3747 32.8073 38.7507 31.75C38.1267 30.6753 37.8147 29.462 37.8147 28.11C37.8147 26.7407 38.1267 25.5273 38.7507 24.47C39.3747 23.4127 40.224 22.5893 41.2987 22C42.3733 21.3933 43.604 21.09 44.9907 21.09C46.36 21.09 47.582 21.3933 48.6567 22C49.7487 22.5893 50.598 23.4127 51.2047 24.47C51.8287 25.51 52.1407 26.7233 52.1407 28.11C52.1407 29.4793 51.8287 30.6927 51.2047 31.75C50.598 32.8073 49.7487 33.6393 48.6567 34.246C47.582 34.8527 46.36 35.156 44.9907 35.156ZM44.9907 32.972C45.8747 32.972 46.6633 32.7727 47.3567 32.374C48.0673 31.9753 48.622 31.412 49.0207 30.684C49.4193 29.9387 49.6187 29.0807 49.6187 28.11C49.6187 27.122 49.4193 26.2727 49.0207 25.562C48.622 24.834 48.0673 24.2707 47.3567 23.872C46.6633 23.4733 45.8747 23.274 44.9907 23.274C44.1067 23.274 43.318 23.4733 42.6247 23.872C41.9313 24.2707 41.3767 24.834 40.9607 25.562C40.5447 26.2727 40.3367 27.122 40.3367 28.11C40.3367 29.0807 40.5447 29.9387 40.9607 30.684C41.3767 31.412 41.9313 31.9753 42.6247 32.374C43.318 32.7727 44.1067 32.972 44.9907 32.972ZM55.5926 35V21.22H58.0886V35H55.5926ZM56.8406 18.568C56.3552 18.568 55.9479 18.412 55.6186 18.1C55.3066 17.788 55.1506 17.4067 55.1506 16.956C55.1506 16.488 55.3066 16.098 55.6186 15.786C55.9479 15.474 56.3552 15.318 56.8406 15.318C57.3259 15.318 57.7246 15.474 58.0366 15.786C58.3659 16.0807 58.5306 16.4533 58.5306 16.904C58.5306 17.372 58.3746 17.7707 58.0626 18.1C57.7506 18.412 57.3432 18.568 56.8406 18.568ZM62.8543 35V15.708H65.3503V35H62.8543ZM76.252 35.156C74.7787 35.156 73.4787 34.8527 72.352 34.246C71.2427 33.6393 70.376 32.8073 69.752 31.75C69.1453 30.6927 68.842 29.4793 68.842 28.11C68.842 26.7407 69.1367 25.5273 69.726 24.47C70.3327 23.4127 71.156 22.5893 72.196 22C73.2533 21.3933 74.4407 21.09 75.758 21.09C77.0927 21.09 78.2713 21.3847 79.294 21.974C80.3167 22.5633 81.114 23.3953 81.686 24.47C82.2753 25.5273 82.57 26.7667 82.57 28.188C82.57 28.292 82.5613 28.4133 82.544 28.552C82.544 28.6907 82.5353 28.8207 82.518 28.942H70.792V27.148H81.218L80.204 27.772C80.2213 26.888 80.0393 26.0993 79.658 25.406C79.2767 24.7127 78.748 24.1753 78.072 23.794C77.4133 23.3953 76.642 23.196 75.758 23.196C74.8913 23.196 74.12 23.3953 73.444 23.794C72.768 24.1753 72.2393 24.7213 71.858 25.432C71.4767 26.1253 71.286 26.9227 71.286 27.824V28.24C71.286 29.1587 71.494 29.982 71.91 30.71C72.3433 31.4207 72.9413 31.9753 73.704 32.374C74.4667 32.7727 75.342 32.972 76.33 32.972C77.1447 32.972 77.8813 32.8333 78.54 32.556C79.216 32.2787 79.8053 31.8627 80.308 31.308L81.686 32.92C81.062 33.648 80.282 34.2027 79.346 34.584C78.4273 34.9653 77.396 35.156 76.252 35.156ZM86.0359 35V21.22H88.4279V24.964L88.1939 24.028C88.5753 23.0747 89.2166 22.3467 90.1179 21.844C91.0193 21.3413 92.1286 21.09 93.4459 21.09V23.508C93.3419 23.4907 93.2379 23.482 93.1339 23.482C93.0473 23.482 92.9606 23.482 92.8739 23.482C91.5393 23.482 90.4819 23.8807 89.7019 24.678C88.9219 25.4753 88.5319 26.628 88.5319 28.136V35H86.0359ZM103.828 35.156C102.684 35.156 101.636 34.896 100.682 34.376C99.7463 33.8387 98.9923 33.05 98.4203 32.01C97.8656 30.97 97.5882 29.67 97.5882 28.11C97.5882 26.55 97.8569 25.25 98.3943 24.21C98.9489 23.17 99.6943 22.39 100.63 21.87C101.584 21.35 102.65 21.09 103.828 21.09C105.18 21.09 106.376 21.3847 107.416 21.974C108.456 22.5633 109.28 23.3867 109.886 24.444C110.493 25.484 110.796 26.706 110.796 28.11C110.796 29.514 110.493 30.7447 109.886 31.802C109.28 32.8593 108.456 33.6827 107.416 34.272C106.376 34.8613 105.18 35.156 103.828 35.156ZM96.5223 40.044V21.22H98.9143V24.938L98.7583 28.136L99.0183 31.334V40.044H96.5223ZM103.62 32.972C104.504 32.972 105.293 32.7727 105.986 32.374C106.697 31.9753 107.252 31.412 107.65 30.684C108.066 29.9387 108.274 29.0807 108.274 28.11C108.274 27.122 108.066 26.2727 107.65 25.562C107.252 24.834 106.697 24.2707 105.986 23.872C105.293 23.4733 104.504 23.274 103.62 23.274C102.754 23.274 101.965 23.4733 101.254 23.872C100.561 24.2707 100.006 24.834 99.5903 25.562C99.1916 26.2727 98.9923 27.122 98.9923 28.11C98.9923 29.0807 99.1916 29.9387 99.5903 30.684C100.006 31.412 100.561 31.9753 101.254 32.374C101.965 32.7727 102.754 32.972 103.62 32.972ZM114.245 35V15.708H116.741V35H114.245ZM130.061 35V32.088L129.931 31.542V26.576C129.931 25.5187 129.619 24.704 128.995 24.132C128.388 23.5427 127.469 23.248 126.239 23.248C125.424 23.248 124.627 23.3867 123.847 23.664C123.067 23.924 122.408 24.2793 121.871 24.73L120.831 22.858C121.541 22.286 122.391 21.8527 123.379 21.558C124.384 21.246 125.433 21.09 126.525 21.09C128.414 21.09 129.87 21.5493 130.893 22.468C131.915 23.3867 132.427 24.7907 132.427 26.68V35H130.061ZM125.537 35.156C124.514 35.156 123.613 34.9827 122.833 34.636C122.07 34.2893 121.481 33.8127 121.065 33.206C120.649 32.582 120.441 31.88 120.441 31.1C120.441 30.3547 120.614 29.6787 120.961 29.072C121.325 28.4653 121.905 27.98 122.703 27.616C123.517 27.252 124.609 27.07 125.979 27.07H130.347V28.864H126.083C124.835 28.864 123.994 29.072 123.561 29.488C123.127 29.904 122.911 30.4067 122.911 30.996C122.911 31.672 123.179 32.218 123.717 32.634C124.254 33.0327 124.999 33.232 125.953 33.232C126.889 33.232 127.703 33.024 128.397 32.608C129.107 32.192 129.619 31.5853 129.931 30.788L130.425 32.504C130.095 33.3187 129.515 33.9687 128.683 34.454C127.851 34.922 126.802 35.156 125.537 35.156ZM141.778 35.156C140.391 35.156 139.316 34.7833 138.554 34.038C137.791 33.2927 137.41 32.2267 137.41 30.84V18.204H139.906V30.736C139.906 31.4813 140.088 32.0533 140.452 32.452C140.833 32.8507 141.37 33.05 142.064 33.05C142.844 33.05 143.494 32.8333 144.014 32.4L144.794 34.194C144.412 34.5233 143.953 34.766 143.416 34.922C142.896 35.078 142.35 35.156 141.778 35.156ZM135.07 23.274V21.22H143.858V23.274H135.07ZM153.49 35.156C152.017 35.156 150.717 34.8527 149.59 34.246C148.481 33.6393 147.614 32.8073 146.99 31.75C146.384 30.6927 146.08 29.4793 146.08 28.11C146.08 26.7407 146.375 25.5273 146.964 24.47C147.571 23.4127 148.394 22.5893 149.434 22C150.492 21.3933 151.679 21.09 152.996 21.09C154.331 21.09 155.51 21.3847 156.532 21.974C157.555 22.5633 158.352 23.3953 158.924 24.47C159.514 25.5273 159.808 26.7667 159.808 28.188C159.808 28.292 159.8 28.4133 159.782 28.552C159.782 28.6907 159.774 28.8207 159.756 28.942H148.03V27.148H158.456L157.442 27.772C157.46 26.888 157.278 26.0993 156.896 25.406C156.515 24.7127 155.986 24.1753 155.31 23.794C154.652 23.3953 153.88 23.196 152.996 23.196C152.13 23.196 151.358 23.3953 150.682 23.794C150.006 24.1753 149.478 24.7213 149.096 25.432C148.715 26.1253 148.524 26.9227 148.524 27.824V28.24C148.524 29.1587 148.732 29.982 149.148 30.71C149.582 31.4207 150.18 31.9753 150.942 32.374C151.705 32.7727 152.58 32.972 153.568 32.972C154.383 32.972 155.12 32.8333 155.778 32.556C156.454 32.2787 157.044 31.8627 157.546 31.308L158.924 32.92C158.3 33.648 157.52 34.2027 156.584 34.584C155.666 34.9653 154.634 35.156 153.49 35.156Z" fill="black"/>
</svg>
